<svg width="127" height="29" viewBox="0 0 127 29" fill="none" xmlns="http://www.w3.org/2000/svg">
<path d="M21.6 9.00001C19.6 7.10001 17.2 6.60001 15.4 6.60001C11 6.60001 8.1 9.20001 8.1 14.6C8.1 18.1 9.9 22.4 15.4 22.4C16.8 22.4 19.1 22.1 20.6 21V17.5H13.7V11.5H27V23.6C25.3 27.1 20.6 28.9 15.3 28.9C4.6 28.9 0.5 21.7 0.5 14.6C0.5 7.50001 5.2 0.200012 15.4 0.200012C19.2 0.200012 22.5 1.00001 26.1 4.60001L21.6 9.00001ZM30.7 28.2V1.00001H38.3V28.2H30.7ZM50.8 20.8V28.1H43.1V1.00001H56.3C63.6 1.00001 67.2 5.60001 67.2 10.9C67.2 16.5 63.6 20.8 56.3 20.8H50.8ZM50.8 14.3H56.3C58.4 14.3 59.5 12.7 59.5 11C59.5 9.20001 58.4 7.60001 56.3 7.60001H50.8V14.3ZM87.5 28.2V17.9H77.7V28.2H70V1.00001H77.7V11.3H87.5V1.00001H95.1V28.2H87.5ZM111.7 10.3L117.6 1.00001H126.3V1.30001L115.5 17.3V28.1H107.8V17.3L97.5 1.30001V1.00001H106.2L111.7 10.3Z" fill="black"/>
</svg>
