<svg width="200" height="200" viewBox="0 0 200 200" fill="none" xmlns="http://www.w3.org/2000/svg">
<rect width="200" height="200" rx="20" fill="white"/>
<path d="M106.077 73.992C106.458 73.992 106.751 74.1827 106.957 74.564C107.162 74.9453 107.265 75.4293 107.265 76.016C107.265 76.7493 107.162 77.3213 106.957 77.732C106.751 78.1133 106.429 78.3773 105.989 78.524C104.229 79.14 102.293 79.492 100.181 79.58C99.594 82.0147 98.4793 83.98 96.8366 85.476C95.2233 86.972 93.434 87.72 91.4686 87.72C88.506 87.72 86.35 86.5907 85.0006 84.332C83.6513 82.0733 82.9766 78.8027 82.9766 74.52C82.9766 70.736 83.446 66.6293 84.3846 62.2C85.3233 57.7413 86.6873 53.9573 88.4766 50.848C90.2953 47.7093 92.4513 46.14 94.9446 46.14C96.294 46.14 97.3793 46.7267 98.2006 47.9C99.022 49.044 99.4326 50.54 99.4326 52.388C99.4326 54.7933 98.978 57.184 98.0686 59.56C97.1593 61.936 95.6486 64.4293 93.5366 67.04C95.502 67.1867 97.1006 68.008 98.3326 69.504C99.5646 70.9707 100.298 72.7893 100.533 74.96C101.911 74.872 103.554 74.5787 105.461 74.08C105.637 74.0213 105.842 73.992 106.077 73.992ZM93.9326 50.496C93.346 50.496 92.7006 51.376 91.9966 53.136C91.322 54.8667 90.6913 57.228 90.1046 60.22C89.518 63.212 89.078 66.4827 88.7846 70.032C90.7206 66.4827 92.2606 63.3587 93.4046 60.66C94.578 57.932 95.1646 55.512 95.1646 53.4C95.1646 52.4613 95.0473 51.7427 94.8126 51.244C94.6073 50.7453 94.314 50.496 93.9326 50.496ZM91.6446 83.056C92.554 83.056 93.3606 82.6747 94.0646 81.912C94.7686 81.1493 95.238 80.0493 95.4726 78.612C94.5633 77.996 93.8593 77.1893 93.3606 76.192C92.8913 75.1947 92.6566 74.1387 92.6566 73.024C92.6566 72.6133 92.7153 72.056 92.8326 71.352H92.7006C91.498 71.352 90.486 71.9533 89.6646 73.156C88.8726 74.3293 88.4766 75.9133 88.4766 77.908C88.4766 79.58 88.7846 80.856 89.4006 81.736C90.046 82.616 90.794 83.056 91.6446 83.056ZM119.218 79.008C119.599 79.008 119.892 79.184 120.098 79.536C120.332 79.888 120.45 80.372 120.45 80.988C120.45 82.044 120.2 82.9533 119.702 83.716C118.88 84.9773 117.795 85.96 116.446 86.664C115.126 87.368 113.542 87.72 111.694 87.72C108.878 87.72 106.692 86.884 105.138 85.212C103.583 83.5107 102.806 81.2227 102.806 78.348C102.806 76.324 103.231 74.4467 104.082 72.716C104.932 70.956 106.106 69.5627 107.602 68.536C109.127 67.5093 110.843 66.996 112.75 66.996C114.451 66.996 115.815 67.5093 116.842 68.536C117.868 69.5333 118.382 70.8973 118.382 72.628C118.382 74.652 117.648 76.3973 116.182 77.864C114.744 79.3013 112.28 80.4453 108.79 81.296C109.494 82.6453 110.682 83.32 112.354 83.32C113.556 83.32 114.539 83.0413 115.302 82.484C116.094 81.9267 117.003 80.988 118.03 79.668C118.382 79.228 118.778 79.008 119.218 79.008ZM112.002 71.308C110.916 71.308 109.992 71.9387 109.23 73.2C108.496 74.4613 108.13 75.9867 108.13 77.776V77.864C109.86 77.4533 111.224 76.8373 112.222 76.016C113.219 75.1947 113.718 74.2413 113.718 73.156C113.718 72.5987 113.556 72.1587 113.234 71.836C112.94 71.484 112.53 71.308 112.002 71.308ZM24.8563 131.72C22.8323 131.72 20.9989 131.221 19.3563 130.224C17.7429 129.227 16.4669 127.789 15.5283 125.912C14.5896 124.005 14.1203 121.761 14.1203 119.18C14.1203 114.721 15.0736 110.6 16.9803 106.816C18.8869 103.003 21.7029 99.952 25.4283 97.664C29.1536 95.3467 33.6269 94.188 38.8483 94.188C40.1976 94.188 41.6349 94.2907 43.1603 94.496C44.7149 94.7013 46.1229 95.0093 47.3843 95.42C48.2056 95.6547 48.6163 96.2413 48.6163 97.18C48.6163 97.9427 48.3229 98.6613 47.7363 99.336C47.1789 100.011 46.5189 100.348 45.7563 100.348C45.5216 100.348 45.3456 100.333 45.2283 100.304C43.7029 99.952 42.3976 99.7027 41.3123 99.556C40.2269 99.38 39.0829 99.292 37.8803 99.292C34.1549 99.292 30.9869 100.201 28.3763 102.02C25.7656 103.809 23.8149 106.185 22.5243 109.148C21.2336 112.111 20.5883 115.308 20.5883 118.74C20.5883 121.233 21.0723 123.169 22.0403 124.548C23.0376 125.897 24.3283 126.572 25.9123 126.572C27.7016 126.572 29.2709 125.839 30.6203 124.372C31.9696 122.905 33.2016 120.529 34.3163 117.244C35.4309 113.959 36.5309 109.5 37.6163 103.868C37.7923 103.047 38.1443 102.489 38.6723 102.196C39.2003 101.903 39.9043 101.756 40.7843 101.756C42.8669 101.756 43.9083 102.431 43.9083 103.78C43.9083 104.015 43.8643 104.308 43.7763 104.66C43.0136 107.505 42.3096 110.659 41.6643 114.12C41.0483 117.552 40.7403 120.163 40.7403 121.952C40.7403 123.536 40.9749 124.695 41.4443 125.428C41.9136 126.132 42.6323 126.484 43.6003 126.484C44.5389 126.484 45.4336 126.176 46.2843 125.56C47.1349 124.915 48.2056 123.829 49.4963 122.304C49.8483 121.893 50.2443 121.688 50.6843 121.688C51.0656 121.688 51.3589 121.864 51.5643 122.216C51.7989 122.568 51.9163 123.052 51.9163 123.668C51.9163 124.812 51.6376 125.721 51.0803 126.396C49.6429 128.127 48.2349 129.447 46.8563 130.356C45.4776 131.265 43.7909 131.72 41.7963 131.72C39.7429 131.72 38.0856 131.133 36.8243 129.96C35.5629 128.757 34.7709 127.071 34.4483 124.9C32.2776 129.447 29.0803 131.72 24.8563 131.72ZM51.4821 131.72C50.3674 131.72 49.5754 131.133 49.1061 129.96C48.6661 128.787 48.4461 126.909 48.4461 124.328C48.4461 120.515 48.9888 116.892 50.0741 113.46C50.3381 112.609 50.7634 111.993 51.3501 111.612C51.9661 111.201 52.8168 110.996 53.9021 110.996C54.4888 110.996 54.8994 111.069 55.1341 111.216C55.3688 111.363 55.4861 111.641 55.4861 112.052C55.4861 112.521 55.2661 113.577 54.8261 115.22C54.5328 116.393 54.2981 117.42 54.1221 118.3C53.9461 119.18 53.7994 120.265 53.6821 121.556C54.6501 119.033 55.7354 116.98 56.9381 115.396C58.1408 113.812 59.3141 112.683 60.4581 112.008C61.6314 111.333 62.7021 110.996 63.6701 110.996C65.5768 110.996 66.5301 111.949 66.5301 113.856C66.5301 115 66.2074 117.068 65.5621 120.06C65.0048 122.612 64.7261 124.299 64.7261 125.12C64.7261 126.293 65.1514 126.88 66.0021 126.88C66.5888 126.88 67.2781 126.528 68.0701 125.824C68.8914 125.091 69.9768 123.917 71.3261 122.304C71.6781 121.893 72.0741 121.688 72.5141 121.688C72.8954 121.688 73.1888 121.864 73.3941 122.216C73.6288 122.568 73.7461 123.052 73.7461 123.668C73.7461 124.841 73.4674 125.751 72.9101 126.396C71.6488 127.951 70.2848 129.227 68.8181 130.224C67.3808 131.221 65.7381 131.72 63.8901 131.72C62.3941 131.72 61.2648 131.295 60.5021 130.444C59.7394 129.564 59.3581 128.303 59.3581 126.66C59.3581 125.839 59.5634 124.372 59.9741 122.26C60.3554 120.412 60.5461 119.136 60.5461 118.432C60.5461 117.963 60.3848 117.728 60.0621 117.728C59.6808 117.728 59.1381 118.227 58.4341 119.224C57.7594 120.192 57.0554 121.483 56.3221 123.096C55.6181 124.709 55.0461 126.411 54.6061 128.2C54.2834 129.579 53.9021 130.517 53.4621 131.016C53.0514 131.485 52.3914 131.72 51.4821 131.72ZM75.9502 108.092C74.7182 108.092 73.7942 107.813 73.1782 107.256C72.5622 106.669 72.2542 105.863 72.2542 104.836C72.2542 103.809 72.6502 102.959 73.4422 102.284C74.2636 101.58 75.2756 101.228 76.4782 101.228C77.5636 101.228 78.4436 101.492 79.1182 102.02C79.7929 102.548 80.1302 103.296 80.1302 104.264C80.1302 105.437 79.7489 106.376 78.9862 107.08C78.2236 107.755 77.2116 108.092 75.9502 108.092ZM75.5982 131.72C73.6916 131.72 72.2982 131.045 71.4182 129.696C70.5676 128.347 70.1422 126.557 70.1422 124.328C70.1422 123.008 70.3036 121.321 70.6262 119.268C70.9782 117.185 71.4182 115.249 71.9462 113.46C72.2102 112.521 72.5622 111.876 73.0022 111.524C73.4422 111.172 74.1462 110.996 75.1142 110.996C76.6102 110.996 77.3582 111.495 77.3582 112.492C77.3582 113.225 77.0796 114.927 76.5222 117.596C75.8182 120.823 75.4662 123.008 75.4662 124.152C75.4662 125.032 75.5836 125.707 75.8182 126.176C76.0529 126.645 76.4489 126.88 77.0062 126.88C77.5342 126.88 78.1942 126.513 78.9862 125.78C79.7782 125.047 80.8342 123.888 82.1542 122.304C82.5062 121.893 82.9022 121.688 83.3422 121.688C83.7236 121.688 84.0169 121.864 84.2222 122.216C84.4569 122.568 84.5742 123.052 84.5742 123.668C84.5742 124.841 84.2956 125.751 83.7382 126.396C80.8342 129.945 78.1209 131.72 75.5982 131.72ZM84.1383 131.72C83.0237 131.72 82.2317 131.133 81.7623 129.96C81.3223 128.787 81.1023 126.909 81.1023 124.328C81.1023 120.515 81.645 116.892 82.7303 113.46C82.9943 112.609 83.4197 111.993 84.0063 111.612C84.6223 111.201 85.473 110.996 86.5583 110.996C87.145 110.996 87.5557 111.069 87.7903 111.216C88.025 111.363 88.1423 111.641 88.1423 112.052C88.1423 112.521 87.9223 113.577 87.4823 115.22C87.189 116.393 86.9543 117.42 86.7783 118.3C86.6023 119.151 86.4557 120.221 86.3383 121.512C87.1303 119.224 88.069 117.288 89.1543 115.704C90.269 114.12 91.3983 112.947 92.5423 112.184C93.7157 111.392 94.8157 110.996 95.8423 110.996C96.869 110.996 97.5877 111.231 97.9983 111.7C98.4383 112.169 98.6583 112.888 98.6583 113.856C98.6583 114.795 98.3797 116.496 97.8223 118.96C97.5877 120.016 97.4263 120.808 97.3383 121.336C98.805 117.728 100.433 115.103 102.222 113.46C104.012 111.817 105.684 110.996 107.238 110.996C109.145 110.996 110.098 111.949 110.098 113.856C110.098 115 109.776 117.068 109.13 120.06C108.573 122.612 108.294 124.299 108.294 125.12C108.294 126.293 108.72 126.88 109.57 126.88C110.157 126.88 110.846 126.528 111.638 125.824C112.46 125.091 113.545 123.917 114.894 122.304C115.246 121.893 115.642 121.688 116.082 121.688C116.464 121.688 116.757 121.864 116.962 122.216C117.197 122.568 117.314 123.052 117.314 123.668C117.314 124.841 117.036 125.751 116.478 126.396C115.217 127.951 113.853 129.227 112.386 130.224C110.949 131.221 109.306 131.72 107.458 131.72C105.962 131.72 104.833 131.295 104.07 130.444C103.308 129.564 102.926 128.303 102.926 126.66C102.926 125.839 103.132 124.372 103.542 122.26C103.924 120.412 104.114 119.136 104.114 118.432C104.114 117.963 103.953 117.728 103.63 117.728C103.249 117.728 102.706 118.227 102.002 119.224C101.298 120.192 100.594 121.483 99.8903 123.096C99.1863 124.709 98.6143 126.411 98.1743 128.2C97.8517 129.608 97.4703 130.547 97.0303 131.016C96.6197 131.485 95.945 131.72 95.0063 131.72C94.0383 131.72 93.305 131.265 92.8063 130.356C92.337 129.417 92.1023 128.288 92.1023 126.968C92.1023 125.853 92.249 124.24 92.5423 122.128C92.777 120.251 92.8943 119.019 92.8943 118.432C92.8943 117.963 92.733 117.728 92.4103 117.728C91.9703 117.728 91.413 118.256 90.7383 119.312C90.0637 120.368 89.4037 121.717 88.7583 123.36C88.1423 125.003 87.6437 126.616 87.2623 128.2C86.9397 129.579 86.5583 130.517 86.1183 131.016C85.7077 131.485 85.0477 131.72 84.1383 131.72ZM119.169 131.72C117.35 131.72 115.898 131.06 114.813 129.74C113.727 128.42 113.185 126.689 113.185 124.548C113.185 122.201 113.727 119.987 114.813 117.904C115.898 115.792 117.335 114.105 119.125 112.844C120.943 111.553 122.865 110.908 124.889 110.908C125.534 110.908 125.959 111.04 126.165 111.304C126.399 111.539 126.59 111.979 126.737 112.624C127.353 112.507 127.998 112.448 128.673 112.448C130.11 112.448 130.829 112.961 130.829 113.988C130.829 114.604 130.609 116.071 130.169 118.388C129.494 121.761 129.157 124.108 129.157 125.428C129.157 125.868 129.259 126.22 129.465 126.484C129.699 126.748 129.993 126.88 130.345 126.88C130.902 126.88 131.577 126.528 132.369 125.824C133.161 125.091 134.231 123.917 135.581 122.304C135.933 121.893 136.329 121.688 136.769 121.688C137.15 121.688 137.443 121.864 137.649 122.216C137.883 122.568 138.001 123.052 138.001 123.668C138.001 124.841 137.722 125.751 137.165 126.396C135.962 127.892 134.686 129.153 133.337 130.18C131.987 131.207 130.682 131.72 129.421 131.72C128.453 131.72 127.558 131.397 126.737 130.752C125.945 130.077 125.343 129.168 124.933 128.024C123.407 130.488 121.486 131.72 119.169 131.72ZM120.753 127.276C121.398 127.276 122.014 126.895 122.601 126.132C123.187 125.369 123.613 124.357 123.877 123.096L125.505 115C124.273 115.029 123.129 115.499 122.073 116.408C121.046 117.288 120.225 118.461 119.609 119.928C118.993 121.395 118.685 122.949 118.685 124.592C118.685 125.501 118.861 126.176 119.213 126.616C119.594 127.056 120.107 127.276 120.753 127.276ZM154.049 121.688C154.43 121.688 154.723 121.864 154.928 122.216C155.163 122.568 155.281 123.052 155.281 123.668C155.281 124.841 155.002 125.751 154.445 126.396C153.183 127.951 151.805 129.227 150.309 130.224C148.813 131.221 147.097 131.72 145.161 131.72C139.177 131.72 136.185 127.511 136.185 119.092C136.185 117.801 136.229 116.496 136.317 115.176H134.601C133.721 115.176 133.119 115.015 132.797 114.692C132.503 114.369 132.357 113.856 132.357 113.152C132.357 111.509 133.017 110.688 134.337 110.688H136.845C137.343 107.461 138.106 104.513 139.133 101.844C140.159 99.1747 141.391 97.048 142.829 95.464C144.295 93.88 145.865 93.088 147.537 93.088C148.769 93.088 149.737 93.6307 150.441 94.716C151.145 95.8013 151.497 97.1653 151.497 98.808C151.497 103.355 149.59 107.315 145.777 110.688H150.705C151.174 110.688 151.511 110.791 151.717 110.996C151.922 111.201 152.025 111.583 152.025 112.14C152.025 114.164 150.367 115.176 147.053 115.176H141.685C141.626 116.643 141.597 117.787 141.597 118.608C141.597 121.659 141.949 123.8 142.653 125.032C143.386 126.264 144.53 126.88 146.085 126.88C147.346 126.88 148.461 126.499 149.429 125.736C150.397 124.973 151.541 123.829 152.861 122.304C153.213 121.893 153.609 121.688 154.049 121.688ZM146.349 97.312C145.909 97.312 145.41 97.8693 144.853 98.984C144.325 100.069 143.811 101.595 143.312 103.56C142.843 105.496 142.447 107.652 142.125 110.028C143.855 108.532 145.146 106.86 145.997 105.012C146.877 103.135 147.317 101.433 147.317 99.908C147.317 98.1773 146.994 97.312 146.349 97.312ZM171.322 121.688C171.703 121.688 171.997 121.864 172.202 122.216C172.437 122.568 172.554 123.052 172.554 123.668C172.554 124.841 172.275 125.751 171.718 126.396C170.633 127.716 169.093 128.933 167.098 130.048C165.133 131.163 163.021 131.72 160.762 131.72C157.682 131.72 155.291 130.884 153.59 129.212C151.889 127.54 151.038 125.252 151.038 122.348C151.038 120.324 151.463 118.447 152.314 116.716C153.165 114.956 154.338 113.563 155.834 112.536C157.359 111.509 159.075 110.996 160.982 110.996C162.683 110.996 164.047 111.509 165.074 112.536C166.101 113.533 166.614 114.897 166.614 116.628C166.614 118.652 165.881 120.397 164.414 121.864C162.977 123.301 160.527 124.445 157.066 125.296C157.799 126.645 159.193 127.32 161.246 127.32C162.566 127.32 164.062 126.865 165.734 125.956C167.435 125.017 168.902 123.8 170.134 122.304C170.486 121.893 170.882 121.688 171.322 121.688ZM160.234 115.308C159.149 115.308 158.225 115.939 157.462 117.2C156.729 118.461 156.362 119.987 156.362 121.776V121.864C158.093 121.453 159.457 120.837 160.454 120.016C161.451 119.195 161.95 118.241 161.95 117.156C161.95 116.599 161.789 116.159 161.466 115.836C161.173 115.484 160.762 115.308 160.234 115.308ZM184.773 121.688C185.095 124.093 185.565 126.469 186.181 128.816C186.298 129.197 186.357 129.593 186.357 130.004C186.357 131.324 185.55 131.984 183.937 131.984C183.027 131.984 182.323 131.735 181.825 131.236C181.355 130.737 180.915 129.799 180.505 128.42L180.461 128.244C179.346 129.623 178.334 130.547 177.425 131.016C176.545 131.485 175.518 131.72 174.345 131.72C172.555 131.72 171.074 131.06 169.901 129.74C168.757 128.391 168.185 126.645 168.185 124.504C168.185 122.157 168.683 119.987 169.681 117.992C170.678 115.997 172.042 114.369 173.773 113.108C175.503 111.817 177.439 111.04 179.581 110.776C180.138 105.232 181.194 100.407 182.749 96.3C184.333 92.1933 186.43 90.14 189.041 90.14C190.302 90.14 191.343 90.712 192.165 91.856C193.015 93 193.441 94.7307 193.441 97.048C193.441 100.275 192.649 104.044 191.065 108.356C189.481 112.668 187.383 117.112 184.773 121.688ZM188.557 94.452C187.706 94.452 186.899 96.6227 186.137 100.964C185.403 105.305 184.905 110.028 184.641 115.132C187.897 108.092 189.525 102.372 189.525 97.972C189.525 96.8573 189.422 95.992 189.217 95.376C189.041 94.76 188.821 94.452 188.557 94.452ZM175.885 127.276C176.471 127.276 177.029 127.056 177.557 126.616C178.114 126.176 178.818 125.325 179.669 124.064C179.375 121.923 179.229 119.708 179.229 117.42C179.229 116.511 179.243 115.807 179.273 115.308C177.659 115.777 176.325 116.848 175.269 118.52C174.213 120.192 173.685 122.04 173.685 124.064C173.685 126.205 174.418 127.276 175.885 127.276Z" fill="black"/>
<rect width="77" height="1" transform="translate(10 143.5)" fill="#0F0F0F"/>
<path d="M106.841 141.5C106.716 141.117 106.551 140.775 106.347 140.472C106.146 140.165 105.905 139.903 105.625 139.688C105.348 139.472 105.034 139.307 104.682 139.193C104.329 139.08 103.943 139.023 103.523 139.023C102.833 139.023 102.206 139.201 101.642 139.557C101.078 139.913 100.629 140.438 100.295 141.131C99.962 141.824 99.7954 142.674 99.7954 143.682C99.7954 144.689 99.9639 145.54 100.301 146.233C100.638 146.926 101.095 147.451 101.67 147.807C102.246 148.163 102.894 148.341 103.614 148.341C104.28 148.341 104.867 148.199 105.375 147.915C105.886 147.627 106.284 147.222 106.568 146.699C106.856 146.172 107 145.553 107 144.841L107.432 144.932H103.932V143.682H108.364V144.932C108.364 145.89 108.159 146.723 107.75 147.432C107.345 148.14 106.784 148.689 106.068 149.08C105.356 149.466 104.538 149.659 103.614 149.659C102.583 149.659 101.678 149.417 100.898 148.932C100.121 148.447 99.5151 147.758 99.0795 146.864C98.6476 145.97 98.4317 144.909 98.4317 143.682C98.4317 142.761 98.5548 141.934 98.8011 141.199C99.0511 140.46 99.4033 139.831 99.8579 139.312C100.312 138.794 100.85 138.396 101.472 138.119C102.093 137.843 102.776 137.705 103.523 137.705C104.136 137.705 104.708 137.797 105.239 137.983C105.773 138.165 106.248 138.424 106.665 138.761C107.085 139.095 107.436 139.494 107.716 139.96C107.996 140.422 108.189 140.936 108.295 141.5H106.841ZM110.746 137.864V149.5H109.337V137.864H110.746ZM112.131 149.5V137.864H119.109V139.114H113.54V143.045H118.586V144.295H113.54V149.5H112.131ZM124.301 137.864V149.5H122.96V137.864H124.301ZM128.862 149.682C128.075 149.682 127.383 149.494 126.789 149.119C126.198 148.744 125.736 148.22 125.402 147.545C125.073 146.871 124.908 146.083 124.908 145.182C124.908 144.273 125.073 143.479 125.402 142.801C125.736 142.123 126.198 141.597 126.789 141.222C127.383 140.847 128.075 140.659 128.862 140.659C129.65 140.659 130.34 140.847 130.931 141.222C131.525 141.597 131.987 142.123 132.317 142.801C132.65 143.479 132.817 144.273 132.817 145.182C132.817 146.083 132.65 146.871 132.317 147.545C131.987 148.22 131.525 148.744 130.931 149.119C130.34 149.494 129.65 149.682 128.862 149.682ZM128.862 148.477C129.461 148.477 129.953 148.324 130.34 148.017C130.726 147.71 131.012 147.307 131.198 146.807C131.383 146.307 131.476 145.765 131.476 145.182C131.476 144.598 131.383 144.055 131.198 143.551C131.012 143.047 130.726 142.64 130.34 142.33C129.953 142.019 129.461 141.864 128.862 141.864C128.264 141.864 127.772 142.019 127.385 142.33C126.999 142.64 126.713 143.047 126.527 143.551C126.342 144.055 126.249 144.598 126.249 145.182C126.249 145.765 126.342 146.307 126.527 146.807C126.713 147.307 126.999 147.71 127.385 148.017C127.772 148.324 128.264 148.477 128.862 148.477ZM135.992 149.705C135.439 149.705 134.937 149.6 134.486 149.392C134.036 149.18 133.678 148.875 133.412 148.477C133.147 148.076 133.015 147.591 133.015 147.023C133.015 146.523 133.113 146.117 133.31 145.807C133.507 145.492 133.77 145.246 134.1 145.068C134.43 144.89 134.793 144.758 135.191 144.67C135.592 144.58 135.996 144.508 136.401 144.455C136.931 144.386 137.361 144.335 137.691 144.301C138.024 144.263 138.267 144.201 138.418 144.114C138.573 144.027 138.651 143.875 138.651 143.659V143.614C138.651 143.053 138.498 142.617 138.191 142.307C137.888 141.996 137.428 141.841 136.81 141.841C136.17 141.841 135.668 141.981 135.305 142.261C134.941 142.542 134.685 142.841 134.537 143.159L133.265 142.705C133.492 142.174 133.795 141.761 134.174 141.466C134.556 141.167 134.973 140.958 135.424 140.841C135.878 140.72 136.325 140.659 136.765 140.659C137.045 140.659 137.367 140.693 137.731 140.761C138.098 140.826 138.452 140.96 138.793 141.165C139.138 141.369 139.424 141.678 139.651 142.091C139.878 142.504 139.992 143.057 139.992 143.75V149.5H138.651V148.318H138.583C138.492 148.508 138.341 148.71 138.128 148.926C137.916 149.142 137.634 149.326 137.282 149.477C136.93 149.629 136.5 149.705 135.992 149.705ZM136.197 148.5C136.727 148.5 137.174 148.396 137.537 148.188C137.905 147.979 138.181 147.71 138.367 147.381C138.556 147.051 138.651 146.705 138.651 146.341V145.114C138.594 145.182 138.469 145.244 138.276 145.301C138.087 145.354 137.867 145.402 137.617 145.443C137.371 145.481 137.13 145.515 136.895 145.545C136.664 145.572 136.477 145.595 136.333 145.614C135.984 145.659 135.659 145.733 135.356 145.835C135.056 145.934 134.814 146.083 134.628 146.284C134.447 146.481 134.356 146.75 134.356 147.091C134.356 147.557 134.528 147.909 134.873 148.148C135.221 148.383 135.662 148.5 136.197 148.5ZM144.295 149.682C143.568 149.682 142.926 149.498 142.369 149.131C141.812 148.759 141.376 148.237 141.062 147.562C140.748 146.884 140.59 146.083 140.59 145.159C140.59 144.242 140.748 143.447 141.062 142.773C141.376 142.098 141.814 141.578 142.374 141.21C142.935 140.843 143.583 140.659 144.318 140.659C144.886 140.659 145.335 140.754 145.664 140.943C145.998 141.129 146.251 141.341 146.426 141.58C146.604 141.814 146.742 142.008 146.84 142.159H146.954V137.864H148.295V149.5H146.999V148.159H146.84C146.742 148.318 146.602 148.519 146.42 148.761C146.238 149 145.979 149.214 145.642 149.403C145.304 149.589 144.856 149.682 144.295 149.682ZM144.477 148.477C145.015 148.477 145.469 148.337 145.84 148.057C146.212 147.773 146.494 147.381 146.687 146.881C146.88 146.377 146.977 145.795 146.977 145.136C146.977 144.485 146.882 143.915 146.693 143.426C146.503 142.934 146.223 142.551 145.852 142.278C145.481 142.002 145.022 141.864 144.477 141.864C143.909 141.864 143.435 142.009 143.056 142.301C142.681 142.589 142.399 142.981 142.21 143.477C142.024 143.97 141.931 144.523 141.931 145.136C141.931 145.758 142.026 146.322 142.215 146.83C142.409 147.333 142.693 147.735 143.068 148.034C143.446 148.33 143.916 148.477 144.477 148.477ZM153.156 149.682C152.315 149.682 151.59 149.496 150.98 149.125C150.374 148.75 149.906 148.227 149.577 147.557C149.251 146.883 149.088 146.098 149.088 145.205C149.088 144.311 149.251 143.523 149.577 142.841C149.906 142.155 150.364 141.621 150.952 141.239C151.542 140.852 152.232 140.659 153.02 140.659C153.474 140.659 153.923 140.735 154.366 140.886C154.809 141.038 155.213 141.284 155.577 141.625C155.94 141.962 156.23 142.409 156.446 142.966C156.662 143.523 156.77 144.208 156.77 145.023V145.591H150.042V144.432H155.406C155.406 143.939 155.308 143.5 155.111 143.114C154.917 142.727 154.641 142.422 154.281 142.199C153.925 141.975 153.505 141.864 153.02 141.864C152.486 141.864 152.023 141.996 151.633 142.261C151.247 142.523 150.95 142.864 150.741 143.284C150.533 143.705 150.429 144.155 150.429 144.636V145.409C150.429 146.068 150.542 146.627 150.77 147.085C151.001 147.54 151.321 147.886 151.73 148.125C152.139 148.36 152.614 148.477 153.156 148.477C153.508 148.477 153.827 148.428 154.111 148.33C154.398 148.227 154.647 148.076 154.855 147.875C155.063 147.67 155.224 147.417 155.338 147.114L156.633 147.477C156.497 147.917 156.268 148.303 155.946 148.636C155.624 148.966 155.226 149.223 154.753 149.409C154.279 149.591 153.747 149.682 153.156 149.682ZM157.369 149.5V140.773H158.665V142.091H158.756C158.915 141.659 159.203 141.309 159.619 141.04C160.036 140.771 160.506 140.636 161.029 140.636C161.127 140.636 161.25 140.638 161.398 140.642C161.546 140.646 161.657 140.652 161.733 140.659V142.023C161.688 142.011 161.583 141.994 161.421 141.972C161.262 141.945 161.093 141.932 160.915 141.932C160.491 141.932 160.112 142.021 159.779 142.199C159.449 142.373 159.188 142.616 158.994 142.926C158.805 143.233 158.71 143.583 158.71 143.977V149.5H157.369ZM166.283 144.25V149.5H164.943V137.864H166.283V142.136H166.397C166.602 141.686 166.908 141.328 167.318 141.062C167.73 140.794 168.28 140.659 168.965 140.659C169.56 140.659 170.081 140.778 170.528 141.017C170.975 141.252 171.321 141.614 171.568 142.102C171.818 142.587 171.943 143.205 171.943 143.955V149.5H170.602V144.045C170.602 143.352 170.422 142.816 170.062 142.438C169.706 142.055 169.212 141.864 168.579 141.864C168.14 141.864 167.746 141.956 167.397 142.142C167.052 142.328 166.78 142.598 166.579 142.955C166.382 143.311 166.283 143.742 166.283 144.25ZM178.456 145.932V140.773H179.797V149.5H178.456V148.023H178.365C178.16 148.466 177.842 148.843 177.41 149.153C176.978 149.46 176.433 149.614 175.774 149.614C175.228 149.614 174.744 149.494 174.319 149.256C173.895 149.013 173.562 148.65 173.319 148.165C173.077 147.676 172.956 147.061 172.956 146.318V140.773H174.297V146.227C174.297 146.864 174.475 147.371 174.831 147.75C175.191 148.129 175.649 148.318 176.206 148.318C176.539 148.318 176.878 148.233 177.223 148.062C177.571 147.892 177.863 147.631 178.098 147.278C178.336 146.926 178.456 146.477 178.456 145.932ZM180.994 149.5V137.864H182.335V142.159H182.449C182.547 142.008 182.684 141.814 182.858 141.58C183.036 141.341 183.29 141.129 183.619 140.943C183.953 140.754 184.403 140.659 184.972 140.659C185.707 140.659 186.354 140.843 186.915 141.21C187.475 141.578 187.913 142.098 188.227 142.773C188.542 143.447 188.699 144.242 188.699 145.159C188.699 146.083 188.542 146.884 188.227 147.562C187.913 148.237 187.477 148.759 186.921 149.131C186.364 149.498 185.722 149.682 184.994 149.682C184.434 149.682 183.985 149.589 183.648 149.403C183.311 149.214 183.051 149 182.869 148.761C182.688 148.519 182.547 148.318 182.449 148.159H182.29V149.5H180.994ZM182.313 145.136C182.313 145.795 182.409 146.377 182.602 146.881C182.796 147.381 183.078 147.773 183.449 148.057C183.82 148.337 184.275 148.477 184.813 148.477C185.373 148.477 185.841 148.33 186.216 148.034C186.595 147.735 186.879 147.333 187.068 146.83C187.261 146.322 187.358 145.758 187.358 145.136C187.358 144.523 187.263 143.97 187.074 143.477C186.888 142.981 186.606 142.589 186.227 142.301C185.852 142.009 185.381 141.864 184.813 141.864C184.267 141.864 183.809 142.002 183.438 142.278C183.066 142.551 182.786 142.934 182.597 143.426C182.407 143.915 182.313 144.485 182.313 145.136Z" fill="#0F0F0F"/>
</svg>
