<svg width="184" height="108" viewBox="0 0 184 108" fill="none" xmlns="http://www.w3.org/2000/svg">
<path d="M96.0766 27.992C96.458 27.992 96.7513 28.1827 96.9566 28.564C97.162 28.9453 97.2646 29.4293 97.2646 30.016C97.2646 30.7493 97.162 31.3213 96.9566 31.732C96.7513 32.1133 96.4286 32.3773 95.9886 32.524C94.2286 33.14 92.2926 33.492 90.1806 33.58C89.594 36.0147 88.4793 37.98 86.8366 39.476C85.2233 40.972 83.434 41.72 81.4686 41.72C78.506 41.72 76.35 40.5907 75.0006 38.332C73.6513 36.0733 72.9766 32.8027 72.9766 28.52C72.9766 24.736 73.446 20.6293 74.3846 16.2C75.3233 11.7413 76.6873 7.95733 78.4766 4.848C80.2953 1.70933 82.4513 0.139997 84.9446 0.139997C86.294 0.139997 87.3793 0.726664 88.2006 1.9C89.022 3.044 89.4326 4.54 89.4326 6.388C89.4326 8.79333 88.978 11.184 88.0686 13.56C87.1593 15.936 85.6486 18.4293 83.5366 21.04C85.502 21.1867 87.1006 22.008 88.3326 23.504C89.5646 24.9707 90.298 26.7893 90.5326 28.96C91.9113 28.872 93.554 28.5787 95.4606 28.08C95.6366 28.0213 95.842 27.992 96.0766 27.992ZM83.9326 4.496C83.346 4.496 82.7006 5.376 81.9966 7.136C81.322 8.86666 80.6913 11.228 80.1046 14.22C79.518 17.212 79.078 20.4827 78.7846 24.032C80.7206 20.4827 82.2606 17.3587 83.4046 14.66C84.578 11.932 85.1646 9.512 85.1646 7.4C85.1646 6.46133 85.0473 5.74266 84.8126 5.244C84.6073 4.74533 84.314 4.496 83.9326 4.496ZM81.6446 37.056C82.554 37.056 83.3606 36.6747 84.0646 35.912C84.7686 35.1493 85.238 34.0493 85.4726 32.612C84.5633 31.996 83.8593 31.1893 83.3606 30.192C82.8913 29.1947 82.6566 28.1387 82.6566 27.024C82.6566 26.6133 82.7153 26.056 82.8326 25.352H82.7006C81.498 25.352 80.486 25.9533 79.6646 27.156C78.8726 28.3293 78.4766 29.9133 78.4766 31.908C78.4766 33.58 78.7846 34.856 79.4006 35.736C80.046 36.616 80.794 37.056 81.6446 37.056ZM109.218 33.008C109.599 33.008 109.892 33.184 110.098 33.536C110.332 33.888 110.45 34.372 110.45 34.988C110.45 36.044 110.2 36.9533 109.702 37.716C108.88 38.9773 107.795 39.96 106.446 40.664C105.126 41.368 103.542 41.72 101.694 41.72C98.8775 41.72 96.6922 40.884 95.1375 39.212C93.5828 37.5107 92.8055 35.2227 92.8055 32.348C92.8055 30.324 93.2308 28.4467 94.0815 26.716C94.9322 24.956 96.1055 23.5627 97.6015 22.536C99.1268 21.5093 100.843 20.996 102.75 20.996C104.451 20.996 105.815 21.5093 106.842 22.536C107.868 23.5333 108.382 24.8973 108.382 26.628C108.382 28.652 107.648 30.3973 106.182 31.864C104.744 33.3013 102.28 34.4453 98.7895 35.296C99.4935 36.6453 100.682 37.32 102.354 37.32C103.556 37.32 104.539 37.0413 105.302 36.484C106.094 35.9267 107.003 34.988 108.03 33.668C108.382 33.228 108.778 33.008 109.218 33.008ZM102.002 25.308C100.916 25.308 99.9922 25.9387 99.2295 27.2C98.4962 28.4613 98.1295 29.9867 98.1295 31.776V31.864C99.8602 31.4533 101.224 30.8373 102.222 30.016C103.219 29.1947 103.718 28.2413 103.718 27.156C103.718 26.5987 103.556 26.1587 103.234 25.836C102.94 25.484 102.53 25.308 102.002 25.308ZM14.8563 85.72C12.8323 85.72 10.9989 85.2213 9.35625 84.224C7.74292 83.2267 6.46692 81.7893 5.52825 79.912C4.58958 78.0053 4.12025 75.7613 4.12025 73.18C4.12025 68.7213 5.07358 64.6 6.98025 60.816C8.88692 57.0027 11.7029 53.952 15.4283 51.664C19.1536 49.3467 23.6269 48.188 28.8483 48.188C30.1976 48.188 31.6349 48.2907 33.1603 48.496C34.7149 48.7013 36.1229 49.0093 37.3843 49.42C38.2056 49.6547 38.6163 50.2413 38.6163 51.18C38.6163 51.9427 38.3229 52.6613 37.7363 53.336C37.1789 54.0107 36.5189 54.348 35.7563 54.348C35.5216 54.348 35.3456 54.3333 35.2283 54.304C33.7029 53.952 32.3976 53.7027 31.3123 53.556C30.2269 53.38 29.0829 53.292 27.8803 53.292C24.1549 53.292 20.9869 54.2013 18.3763 56.02C15.7656 57.8093 13.8149 60.1853 12.5243 63.148C11.2336 66.1107 10.5883 69.308 10.5883 72.74C10.5883 75.2333 11.0723 77.1693 12.0403 78.548C13.0376 79.8973 14.3283 80.572 15.9123 80.572C17.7016 80.572 19.2709 79.8387 20.6203 78.372C21.9696 76.9053 23.2016 74.5293 24.3163 71.244C25.4309 67.9587 26.5309 63.5 27.6163 57.868C27.7923 57.0467 28.1443 56.4893 28.6723 56.196C29.2003 55.9027 29.9043 55.756 30.7843 55.756C32.8669 55.756 33.9083 56.4307 33.9083 57.78C33.9083 58.0147 33.8643 58.308 33.7763 58.66C33.0136 61.5053 32.3096 64.6587 31.6643 68.12C31.0483 71.552 30.7403 74.1627 30.7403 75.952C30.7403 77.536 30.9749 78.6947 31.4443 79.428C31.9136 80.132 32.6323 80.484 33.6003 80.484C34.5389 80.484 35.4336 80.176 36.2843 79.56C37.1349 78.9147 38.2056 77.8293 39.4963 76.304C39.8483 75.8933 40.2443 75.688 40.6843 75.688C41.0656 75.688 41.3589 75.864 41.5643 76.216C41.7989 76.568 41.9163 77.052 41.9163 77.668C41.9163 78.812 41.6376 79.7213 41.0803 80.396C39.6429 82.1267 38.2349 83.4467 36.8563 84.356C35.4776 85.2653 33.7909 85.72 31.7963 85.72C29.7429 85.72 28.0856 85.1333 26.8243 83.96C25.5629 82.7573 24.7709 81.0707 24.4483 78.9C22.2776 83.4467 19.0803 85.72 14.8563 85.72ZM41.4821 85.72C40.3674 85.72 39.5754 85.1333 39.1061 83.96C38.6661 82.7867 38.4461 80.9093 38.4461 78.328C38.4461 74.5147 38.9888 70.892 40.0741 67.46C40.3381 66.6093 40.7634 65.9933 41.3501 65.612C41.9661 65.2013 42.8168 64.996 43.9021 64.996C44.4888 64.996 44.8994 65.0693 45.1341 65.216C45.3688 65.3627 45.4861 65.6413 45.4861 66.052C45.4861 66.5213 45.2661 67.5773 44.8261 69.22C44.5328 70.3933 44.2981 71.42 44.1221 72.3C43.9461 73.18 43.7994 74.2653 43.6821 75.556C44.6501 73.0333 45.7354 70.98 46.9381 69.396C48.1408 67.812 49.3141 66.6827 50.4581 66.008C51.6314 65.3333 52.7021 64.996 53.6701 64.996C55.5768 64.996 56.5301 65.9493 56.5301 67.856C56.5301 69 56.2074 71.068 55.5621 74.06C55.0048 76.612 54.7261 78.2987 54.7261 79.12C54.7261 80.2933 55.1514 80.88 56.0021 80.88C56.5888 80.88 57.2781 80.528 58.0701 79.824C58.8914 79.0907 59.9768 77.9173 61.3261 76.304C61.6781 75.8933 62.0741 75.688 62.5141 75.688C62.8954 75.688 63.1888 75.864 63.3941 76.216C63.6288 76.568 63.7461 77.052 63.7461 77.668C63.7461 78.8413 63.4674 79.7507 62.9101 80.396C61.6488 81.9507 60.2848 83.2267 58.8181 84.224C57.3808 85.2213 55.7381 85.72 53.8901 85.72C52.3941 85.72 51.2648 85.2947 50.5021 84.444C49.7394 83.564 49.3581 82.3027 49.3581 80.66C49.3581 79.8387 49.5634 78.372 49.9741 76.26C50.3554 74.412 50.5461 73.136 50.5461 72.432C50.5461 71.9627 50.3848 71.728 50.0621 71.728C49.6808 71.728 49.1381 72.2267 48.4341 73.224C47.7594 74.192 47.0554 75.4827 46.3221 77.096C45.6181 78.7093 45.0461 80.4107 44.6061 82.2C44.2834 83.5787 43.9021 84.5173 43.4621 85.016C43.0514 85.4853 42.3914 85.72 41.4821 85.72ZM65.9502 62.092C64.7182 62.092 63.7942 61.8133 63.1782 61.256C62.5622 60.6693 62.2542 59.8627 62.2542 58.836C62.2542 57.8093 62.6502 56.9587 63.4422 56.284C64.2636 55.58 65.2756 55.228 66.4782 55.228C67.5636 55.228 68.4436 55.492 69.1182 56.02C69.7929 56.548 70.1302 57.296 70.1302 58.264C70.1302 59.4373 69.7489 60.376 68.9862 61.08C68.2236 61.7547 67.2116 62.092 65.9502 62.092ZM65.5982 85.72C63.6916 85.72 62.2982 85.0453 61.4182 83.696C60.5676 82.3467 60.1422 80.5573 60.1422 78.328C60.1422 77.008 60.3036 75.3213 60.6262 73.268C60.9782 71.1853 61.4182 69.2493 61.9462 67.46C62.2102 66.5213 62.5622 65.876 63.0022 65.524C63.4422 65.172 64.1462 64.996 65.1142 64.996C66.6102 64.996 67.3582 65.4947 67.3582 66.492C67.3582 67.2253 67.0796 68.9267 66.5222 71.596C65.8182 74.8227 65.4662 77.008 65.4662 78.152C65.4662 79.032 65.5836 79.7067 65.8182 80.176C66.0529 80.6453 66.4489 80.88 67.0062 80.88C67.5342 80.88 68.1942 80.5133 68.9862 79.78C69.7782 79.0467 70.8342 77.888 72.1542 76.304C72.5062 75.8933 72.9022 75.688 73.3422 75.688C73.7236 75.688 74.0169 75.864 74.2222 76.216C74.4569 76.568 74.5742 77.052 74.5742 77.668C74.5742 78.8413 74.2956 79.7507 73.7382 80.396C70.8342 83.9453 68.1209 85.72 65.5982 85.72ZM74.1383 85.72C73.0237 85.72 72.2317 85.1333 71.7623 83.96C71.3223 82.7867 71.1023 80.9093 71.1023 78.328C71.1023 74.5147 71.645 70.892 72.7303 67.46C72.9943 66.6093 73.4197 65.9933 74.0063 65.612C74.6223 65.2013 75.473 64.996 76.5583 64.996C77.145 64.996 77.5557 65.0693 77.7903 65.216C78.025 65.3627 78.1423 65.6413 78.1423 66.052C78.1423 66.5213 77.9223 67.5773 77.4823 69.22C77.189 70.3933 76.9543 71.42 76.7783 72.3C76.6023 73.1507 76.4557 74.2213 76.3383 75.512C77.1303 73.224 78.069 71.288 79.1543 69.704C80.269 68.12 81.3983 66.9467 82.5423 66.184C83.7157 65.392 84.8157 64.996 85.8423 64.996C86.869 64.996 87.5877 65.2307 87.9983 65.7C88.4383 66.1693 88.6583 66.888 88.6583 67.856C88.6583 68.7947 88.3797 70.496 87.8223 72.96C87.5877 74.016 87.4263 74.808 87.3383 75.336C88.805 71.728 90.433 69.1027 92.2223 67.46C94.0117 65.8173 95.6837 64.996 97.2383 64.996C99.145 64.996 100.098 65.9493 100.098 67.856C100.098 69 99.7757 71.068 99.1303 74.06C98.573 76.612 98.2943 78.2987 98.2943 79.12C98.2943 80.2933 98.7197 80.88 99.5703 80.88C100.157 80.88 100.846 80.528 101.638 79.824C102.46 79.0907 103.545 77.9173 104.894 76.304C105.246 75.8933 105.642 75.688 106.082 75.688C106.464 75.688 106.757 75.864 106.962 76.216C107.197 76.568 107.314 77.052 107.314 77.668C107.314 78.8413 107.036 79.7507 106.478 80.396C105.217 81.9507 103.853 83.2267 102.386 84.224C100.949 85.2213 99.3063 85.72 97.4583 85.72C95.9623 85.72 94.833 85.2947 94.0703 84.444C93.3077 83.564 92.9263 82.3027 92.9263 80.66C92.9263 79.8387 93.1317 78.372 93.5423 76.26C93.9237 74.412 94.1143 73.136 94.1143 72.432C94.1143 71.9627 93.953 71.728 93.6303 71.728C93.249 71.728 92.7063 72.2267 92.0023 73.224C91.2983 74.192 90.5943 75.4827 89.8903 77.096C89.1863 78.7093 88.6143 80.4107 88.1743 82.2C87.8517 83.608 87.4703 84.5467 87.0303 85.016C86.6197 85.4853 85.945 85.72 85.0063 85.72C84.0383 85.72 83.305 85.2653 82.8063 84.356C82.337 83.4173 82.1023 82.288 82.1023 80.968C82.1023 79.8533 82.249 78.24 82.5423 76.128C82.777 74.2507 82.8943 73.0187 82.8943 72.432C82.8943 71.9627 82.733 71.728 82.4103 71.728C81.9703 71.728 81.413 72.256 80.7383 73.312C80.0637 74.368 79.4037 75.7173 78.7583 77.36C78.1423 79.0027 77.6437 80.616 77.2623 82.2C76.9397 83.5787 76.5583 84.5173 76.1183 85.016C75.7077 85.4853 75.0477 85.72 74.1383 85.72ZM109.169 85.72C107.35 85.72 105.898 85.06 104.813 83.74C103.727 82.42 103.185 80.6893 103.185 78.548C103.185 76.2013 103.727 73.9867 104.813 71.904C105.898 69.792 107.335 68.1053 109.125 66.844C110.943 65.5533 112.865 64.908 114.889 64.908C115.534 64.908 115.959 65.04 116.165 65.304C116.399 65.5387 116.59 65.9787 116.737 66.624C117.353 66.5067 117.998 66.448 118.673 66.448C120.11 66.448 120.829 66.9613 120.829 67.988C120.829 68.604 120.609 70.0707 120.169 72.388C119.494 75.7613 119.157 78.108 119.157 79.428C119.157 79.868 119.259 80.22 119.465 80.484C119.699 80.748 119.993 80.88 120.345 80.88C120.902 80.88 121.577 80.528 122.369 79.824C123.161 79.0907 124.231 77.9173 125.581 76.304C125.933 75.8933 126.329 75.688 126.769 75.688C127.15 75.688 127.443 75.864 127.649 76.216C127.883 76.568 128.001 77.052 128.001 77.668C128.001 78.8413 127.722 79.7507 127.165 80.396C125.962 81.892 124.686 83.1533 123.337 84.18C121.987 85.2067 120.682 85.72 119.421 85.72C118.453 85.72 117.558 85.3973 116.737 84.752C115.945 84.0773 115.343 83.168 114.933 82.024C113.407 84.488 111.486 85.72 109.169 85.72ZM110.753 81.276C111.398 81.276 112.014 80.8947 112.601 80.132C113.187 79.3693 113.613 78.3573 113.877 77.096L115.505 69C114.273 69.0293 113.129 69.4987 112.073 70.408C111.046 71.288 110.225 72.4613 109.609 73.928C108.993 75.3947 108.685 76.9493 108.685 78.592C108.685 79.5013 108.861 80.176 109.213 80.616C109.594 81.056 110.107 81.276 110.753 81.276ZM144.049 75.688C144.43 75.688 144.723 75.864 144.928 76.216C145.163 76.568 145.281 77.052 145.281 77.668C145.281 78.8413 145.002 79.7507 144.445 80.396C143.183 81.9507 141.805 83.2267 140.309 84.224C138.813 85.2213 137.097 85.72 135.161 85.72C129.177 85.72 126.185 81.5107 126.185 73.092C126.185 71.8013 126.229 70.496 126.317 69.176H124.601C123.721 69.176 123.119 69.0147 122.797 68.692C122.503 68.3693 122.357 67.856 122.357 67.152C122.357 65.5093 123.017 64.688 124.337 64.688H126.845C127.343 61.4613 128.106 58.5133 129.133 55.844C130.159 53.1747 131.391 51.048 132.829 49.464C134.295 47.88 135.865 47.088 137.537 47.088C138.769 47.088 139.737 47.6307 140.441 48.716C141.145 49.8013 141.497 51.1653 141.497 52.808C141.497 57.3547 139.59 61.3147 135.777 64.688H140.705C141.174 64.688 141.511 64.7907 141.717 64.996C141.922 65.2013 142.025 65.5827 142.025 66.14C142.025 68.164 140.367 69.176 137.053 69.176H131.685C131.626 70.6427 131.597 71.7867 131.597 72.608C131.597 75.6587 131.949 77.8 132.653 79.032C133.386 80.264 134.53 80.88 136.085 80.88C137.346 80.88 138.461 80.4987 139.429 79.736C140.397 78.9733 141.541 77.8293 142.861 76.304C143.213 75.8933 143.609 75.688 144.049 75.688ZM136.349 51.312C135.909 51.312 135.41 51.8693 134.853 52.984C134.325 54.0693 133.811 55.5947 133.312 57.56C132.843 59.496 132.447 61.652 132.125 64.028C133.855 62.532 135.146 60.86 135.997 59.012C136.877 57.1347 137.317 55.4333 137.317 53.908C137.317 52.1773 136.994 51.312 136.349 51.312ZM161.322 75.688C161.703 75.688 161.997 75.864 162.202 76.216C162.437 76.568 162.554 77.052 162.554 77.668C162.554 78.8413 162.275 79.7507 161.718 80.396C160.633 81.716 159.093 82.9333 157.098 84.048C155.133 85.1627 153.021 85.72 150.762 85.72C147.682 85.72 145.291 84.884 143.59 83.212C141.889 81.54 141.038 79.252 141.038 76.348C141.038 74.324 141.463 72.4467 142.314 70.716C143.165 68.956 144.338 67.5627 145.834 66.536C147.359 65.5093 149.075 64.996 150.982 64.996C152.683 64.996 154.047 65.5093 155.074 66.536C156.101 67.5333 156.614 68.8973 156.614 70.628C156.614 72.652 155.881 74.3973 154.414 75.864C152.977 77.3013 150.527 78.4453 147.066 79.296C147.799 80.6453 149.193 81.32 151.246 81.32C152.566 81.32 154.062 80.8653 155.734 79.956C157.435 79.0173 158.902 77.8 160.134 76.304C160.486 75.8933 160.882 75.688 161.322 75.688ZM150.234 69.308C149.149 69.308 148.225 69.9387 147.462 71.2C146.729 72.4613 146.362 73.9867 146.362 75.776V75.864C148.093 75.4533 149.457 74.8373 150.454 74.016C151.451 73.1947 151.95 72.2413 151.95 71.156C151.95 70.5987 151.789 70.1587 151.466 69.836C151.173 69.484 150.762 69.308 150.234 69.308ZM174.773 75.688C175.095 78.0933 175.565 80.4693 176.181 82.816C176.298 83.1973 176.357 83.5933 176.357 84.004C176.357 85.324 175.55 85.984 173.937 85.984C173.027 85.984 172.323 85.7347 171.825 85.236C171.355 84.7373 170.915 83.7987 170.505 82.42L170.461 82.244C169.346 83.6227 168.334 84.5467 167.425 85.016C166.545 85.4853 165.518 85.72 164.345 85.72C162.555 85.72 161.074 85.06 159.901 83.74C158.757 82.3907 158.185 80.6453 158.185 78.504C158.185 76.1573 158.683 73.9867 159.681 71.992C160.678 69.9973 162.042 68.3693 163.773 67.108C165.503 65.8173 167.439 65.04 169.581 64.776C170.138 59.232 171.194 54.4067 172.749 50.3C174.333 46.1933 176.43 44.14 179.041 44.14C180.302 44.14 181.343 44.712 182.165 45.856C183.015 47 183.441 48.7307 183.441 51.048C183.441 54.2747 182.649 58.044 181.065 62.356C179.481 66.668 177.383 71.112 174.773 75.688ZM178.557 48.452C177.706 48.452 176.899 50.6227 176.137 54.964C175.403 59.3053 174.905 64.028 174.641 69.132C177.897 62.092 179.525 56.372 179.525 51.972C179.525 50.8573 179.422 49.992 179.217 49.376C179.041 48.76 178.821 48.452 178.557 48.452ZM165.885 81.276C166.471 81.276 167.029 81.056 167.557 80.616C168.114 80.176 168.818 79.3253 169.669 78.064C169.375 75.9227 169.229 73.708 169.229 71.42C169.229 70.5107 169.243 69.8067 169.273 69.308C167.659 69.7773 166.325 70.848 165.269 72.52C164.213 74.192 163.685 76.04 163.685 78.064C163.685 80.2053 164.418 81.276 165.885 81.276Z" fill="white"/>
<rect width="77" height="1" transform="translate(0 97.5)" fill="white"/>
<path d="M96.8408 95.5C96.7158 95.1174 96.5511 94.7746 96.3465 94.4716C96.1457 94.1648 95.9052 93.9034 95.6249 93.6875C95.3484 93.4716 95.034 93.3068 94.6817 93.1932C94.3295 93.0795 93.9431 93.0227 93.5226 93.0227C92.8332 93.0227 92.2064 93.2008 91.642 93.5568C91.0776 93.9129 90.6287 94.4375 90.2954 95.1307C89.962 95.8239 89.7954 96.6742 89.7954 97.6818C89.7954 98.6894 89.9639 99.5398 90.3011 100.233C90.6382 100.926 91.0946 101.451 91.6704 101.807C92.2461 102.163 92.8939 102.341 93.6136 102.341C94.2802 102.341 94.8673 102.199 95.3749 101.915C95.8863 101.627 96.284 101.222 96.5681 100.699C96.856 100.172 96.9999 99.553 96.9999 98.8409L97.4317 98.9318H93.9317V97.6818H98.3636V98.9318C98.3636 99.8902 98.159 100.723 97.7499 101.432C97.3446 102.14 96.784 102.689 96.0681 103.08C95.356 103.466 94.5378 103.659 93.6136 103.659C92.5832 103.659 91.6779 103.417 90.8976 102.932C90.1211 102.447 89.5151 101.758 89.0795 100.864C88.6476 99.9697 88.4317 98.9091 88.4317 97.6818C88.4317 96.7614 88.5548 95.9337 88.8011 95.1989C89.0511 94.4602 89.4033 93.8314 89.8579 93.3125C90.3124 92.7936 90.8503 92.3958 91.4715 92.1193C92.0927 91.8428 92.7764 91.7045 93.5226 91.7045C94.1363 91.7045 94.7082 91.7973 95.2386 91.983C95.7726 92.1648 96.248 92.4242 96.6647 92.7614C97.0851 93.0947 97.4355 93.4943 97.7158 93.9602C97.9961 94.4223 98.1893 94.9356 98.2954 95.5H96.8408ZM100.746 91.8636V103.5H99.3369V91.8636H100.746ZM102.131 103.5V91.8636H109.109V93.1136H103.54V97.0455H108.586V98.2955H103.54V103.5H102.131ZM114.301 91.8636V103.5H112.96V91.8636H114.301ZM118.862 103.682C118.075 103.682 117.383 103.494 116.789 103.119C116.198 102.744 115.736 102.22 115.402 101.545C115.073 100.871 114.908 100.083 114.908 99.1818C114.908 98.2727 115.073 97.4792 115.402 96.8011C115.736 96.1231 116.198 95.5966 116.789 95.2216C117.383 94.8466 118.075 94.6591 118.862 94.6591C119.65 94.6591 120.34 94.8466 120.931 95.2216C121.525 95.5966 121.987 96.1231 122.317 96.8011C122.65 97.4792 122.817 98.2727 122.817 99.1818C122.817 100.083 122.65 100.871 122.317 101.545C121.987 102.22 121.525 102.744 120.931 103.119C120.34 103.494 119.65 103.682 118.862 103.682ZM118.862 102.477C119.461 102.477 119.953 102.324 120.34 102.017C120.726 101.71 121.012 101.307 121.198 100.807C121.383 100.307 121.476 99.7652 121.476 99.1818C121.476 98.5985 121.383 98.0549 121.198 97.5511C121.012 97.0473 120.726 96.6402 120.34 96.3295C119.953 96.0189 119.461 95.8636 118.862 95.8636C118.264 95.8636 117.772 96.0189 117.385 96.3295C116.999 96.6402 116.713 97.0473 116.527 97.5511C116.342 98.0549 116.249 98.5985 116.249 99.1818C116.249 99.7652 116.342 100.307 116.527 100.807C116.713 101.307 116.999 101.71 117.385 102.017C117.772 102.324 118.264 102.477 118.862 102.477ZM125.992 103.705C125.439 103.705 124.937 103.6 124.486 103.392C124.036 103.18 123.678 102.875 123.412 102.477C123.147 102.076 123.015 101.591 123.015 101.023C123.015 100.523 123.113 100.117 123.31 99.8068C123.507 99.4924 123.77 99.2462 124.1 99.0682C124.43 98.8902 124.793 98.7576 125.191 98.6705C125.592 98.5795 125.996 98.5076 126.401 98.4545C126.931 98.3864 127.361 98.3352 127.691 98.3011C128.024 98.2633 128.267 98.2008 128.418 98.1136C128.573 98.0265 128.651 97.875 128.651 97.6591V97.6136C128.651 97.053 128.498 96.6174 128.191 96.3068C127.888 95.9962 127.428 95.8409 126.81 95.8409C126.17 95.8409 125.668 95.9811 125.305 96.2614C124.941 96.5417 124.685 96.8409 124.537 97.1591L123.265 96.7045C123.492 96.1742 123.795 95.7614 124.174 95.4659C124.556 95.1667 124.973 94.9583 125.424 94.8409C125.878 94.7197 126.325 94.6591 126.765 94.6591C127.045 94.6591 127.367 94.6932 127.731 94.7614C128.098 94.8258 128.452 94.9602 128.793 95.1648C129.138 95.3693 129.424 95.678 129.651 96.0909C129.878 96.5038 129.992 97.0568 129.992 97.75V103.5H128.651V102.318H128.583C128.492 102.508 128.341 102.71 128.128 102.926C127.916 103.142 127.634 103.326 127.282 103.477C126.93 103.629 126.5 103.705 125.992 103.705ZM126.197 102.5C126.727 102.5 127.174 102.396 127.537 102.188C127.905 101.979 128.181 101.71 128.367 101.381C128.556 101.051 128.651 100.705 128.651 100.341V99.1136C128.594 99.1818 128.469 99.2443 128.276 99.3011C128.087 99.3542 127.867 99.4015 127.617 99.4432C127.371 99.4811 127.13 99.5152 126.895 99.5455C126.664 99.572 126.477 99.5947 126.333 99.6136C125.984 99.6591 125.659 99.733 125.356 99.8352C125.056 99.9337 124.814 100.083 124.628 100.284C124.447 100.481 124.356 100.75 124.356 101.091C124.356 101.557 124.528 101.909 124.873 102.148C125.221 102.383 125.662 102.5 126.197 102.5ZM134.295 103.682C133.568 103.682 132.926 103.498 132.369 103.131C131.812 102.759 131.376 102.237 131.062 101.562C130.748 100.884 130.59 100.083 130.59 99.1591C130.59 98.2424 130.748 97.447 131.062 96.7727C131.376 96.0985 131.814 95.5777 132.374 95.2102C132.935 94.8428 133.583 94.6591 134.318 94.6591C134.886 94.6591 135.335 94.7538 135.664 94.9432C135.998 95.1288 136.251 95.3409 136.426 95.5795C136.604 95.8144 136.742 96.0076 136.84 96.1591H136.954V91.8636H138.295V103.5H136.999V102.159H136.84C136.742 102.318 136.602 102.519 136.42 102.761C136.238 103 135.979 103.214 135.642 103.403C135.304 103.589 134.856 103.682 134.295 103.682ZM134.477 102.477C135.015 102.477 135.469 102.337 135.84 102.057C136.212 101.773 136.494 101.381 136.687 100.881C136.88 100.377 136.977 99.7955 136.977 99.1364C136.977 98.4848 136.882 97.9148 136.693 97.4261C136.503 96.9337 136.223 96.5511 135.852 96.2784C135.481 96.0019 135.022 95.8636 134.477 95.8636C133.909 95.8636 133.435 96.0095 133.056 96.3011C132.681 96.589 132.399 96.9811 132.21 97.4773C132.024 97.9697 131.931 98.5227 131.931 99.1364C131.931 99.7576 132.026 100.322 132.215 100.83C132.409 101.333 132.693 101.735 133.068 102.034C133.446 102.33 133.916 102.477 134.477 102.477ZM143.156 103.682C142.315 103.682 141.59 103.496 140.98 103.125C140.374 102.75 139.906 102.227 139.577 101.557C139.251 100.883 139.088 100.098 139.088 99.2045C139.088 98.3106 139.251 97.5227 139.577 96.8409C139.906 96.1553 140.364 95.6212 140.952 95.2386C141.542 94.8523 142.232 94.6591 143.02 94.6591C143.474 94.6591 143.923 94.7348 144.366 94.8864C144.809 95.0379 145.213 95.2841 145.577 95.625C145.94 95.9621 146.23 96.4091 146.446 96.9659C146.662 97.5227 146.77 98.2083 146.77 99.0227V99.5909H140.042V98.4318H145.406C145.406 97.9394 145.308 97.5 145.111 97.1136C144.917 96.7273 144.641 96.4223 144.281 96.1989C143.925 95.9754 143.505 95.8636 143.02 95.8636C142.486 95.8636 142.023 95.9962 141.633 96.2614C141.247 96.5227 140.95 96.8636 140.741 97.2841C140.533 97.7045 140.429 98.1553 140.429 98.6364V99.4091C140.429 100.068 140.542 100.627 140.77 101.085C141.001 101.54 141.321 101.886 141.73 102.125C142.139 102.36 142.614 102.477 143.156 102.477C143.508 102.477 143.827 102.428 144.111 102.33C144.398 102.227 144.647 102.076 144.855 101.875C145.063 101.67 145.224 101.417 145.338 101.114L146.633 101.477C146.497 101.917 146.268 102.303 145.946 102.636C145.624 102.966 145.226 103.223 144.753 103.409C144.279 103.591 143.747 103.682 143.156 103.682ZM147.369 103.5V94.7727H148.665V96.0909H148.756C148.915 95.6591 149.203 95.3087 149.619 95.0398C150.036 94.7708 150.506 94.6364 151.029 94.6364C151.127 94.6364 151.25 94.6383 151.398 94.642C151.546 94.6458 151.657 94.6515 151.733 94.6591V96.0227C151.688 96.0114 151.583 95.9943 151.421 95.9716C151.262 95.9451 151.093 95.9318 150.915 95.9318C150.491 95.9318 150.112 96.0208 149.779 96.1989C149.449 96.3731 149.188 96.6155 148.994 96.9261C148.805 97.233 148.71 97.5833 148.71 97.9773V103.5H147.369ZM156.283 98.25V103.5H154.943V91.8636H156.283V96.1364H156.397C156.602 95.6856 156.908 95.3277 157.318 95.0625C157.73 94.7936 158.28 94.6591 158.965 94.6591C159.56 94.6591 160.081 94.7784 160.528 95.017C160.975 95.2519 161.321 95.6136 161.568 96.1023C161.818 96.5871 161.943 97.2045 161.943 97.9545V103.5H160.602V98.0455C160.602 97.3523 160.422 96.8163 160.062 96.4375C159.706 96.0549 159.212 95.8636 158.579 95.8636C158.14 95.8636 157.746 95.9564 157.397 96.142C157.052 96.3277 156.78 96.5985 156.579 96.9545C156.382 97.3106 156.283 97.7424 156.283 98.25ZM168.456 99.9318V94.7727H169.797V103.5H168.456V102.023H168.365C168.16 102.466 167.842 102.843 167.41 103.153C166.978 103.46 166.433 103.614 165.774 103.614C165.228 103.614 164.744 103.494 164.319 103.256C163.895 103.013 163.562 102.65 163.319 102.165C163.077 101.676 162.956 101.061 162.956 100.318V94.7727H164.297V100.227C164.297 100.864 164.475 101.371 164.831 101.75C165.191 102.129 165.649 102.318 166.206 102.318C166.539 102.318 166.878 102.233 167.223 102.062C167.571 101.892 167.863 101.631 168.098 101.278C168.336 100.926 168.456 100.477 168.456 99.9318ZM170.994 103.5V91.8636H172.335V96.1591H172.449C172.547 96.0076 172.684 95.8144 172.858 95.5795C173.036 95.3409 173.29 95.1288 173.619 94.9432C173.953 94.7538 174.403 94.6591 174.972 94.6591C175.707 94.6591 176.354 94.8428 176.915 95.2102C177.475 95.5777 177.913 96.0985 178.227 96.7727C178.542 97.447 178.699 98.2424 178.699 99.1591C178.699 100.083 178.542 100.884 178.227 101.562C177.913 102.237 177.477 102.759 176.921 103.131C176.364 103.498 175.722 103.682 174.994 103.682C174.434 103.682 173.985 103.589 173.648 103.403C173.311 103.214 173.051 103 172.869 102.761C172.688 102.519 172.547 102.318 172.449 102.159H172.29V103.5H170.994ZM172.313 99.1364C172.313 99.7955 172.409 100.377 172.602 100.881C172.796 101.381 173.078 101.773 173.449 102.057C173.82 102.337 174.275 102.477 174.813 102.477C175.373 102.477 175.841 102.33 176.216 102.034C176.595 101.735 176.879 101.333 177.068 100.83C177.261 100.322 177.358 99.7576 177.358 99.1364C177.358 98.5227 177.263 97.9697 177.074 97.4773C176.888 96.9811 176.606 96.589 176.227 96.3011C175.852 96.0095 175.381 95.8636 174.813 95.8636C174.267 95.8636 173.809 96.0019 173.438 96.2784C173.066 96.5511 172.786 96.9337 172.597 97.4261C172.407 97.9148 172.313 98.4848 172.313 99.1364Z" fill="white"/>
</svg>
